{
	"asset":{
		"generator":"Khronos glTF Blender I/O v4.0.44",
		"version":"2.0"
	},
	"scene":0,
	"scenes":[
		{
			"name":"Scene",
			"nodes":[
				0
			]
		}
	],
	"nodes":[
		{
			"mesh":0,
			"name":"pjan",
			"rotation":[
				-0.34365689754486084,
				-0.5915464162826538,
				-0.4855400323867798,
				0.5442643761634827
			],
			"scale":[
				15.66344928741455,
				15.66344928741455,
				15.663448333740234
			],
			"translation":[
				1.4058475494384766,
				1.3130706548690796,
				0.2032146453857422
			]
		}
	],
	"materials":[
		{
			"doubleSided":true,
			"name":"pjan",
			"pbrMetallicRoughness":{}
		}
	],
	"meshes":[
		{
			"name":"pjan",
			"primitives":[
				{
					"attributes":{
						"POSITION":0,
						"NORMAL":1,
						"TEXCOORD_0":2
					},
					"indices":3,
					"material":0
				}
			]
		}
	],
	"accessors":[
		{
			"bufferView":0,
			"componentType":5126,
			"count":220141,
			"max":[
				0.17127639055252075,
				0.14425039291381836,
				0.21258150041103363
			],
			"min":[
				-0.1745527684688568,
				-0.14741025865077972,
				-0.1636439710855484
			],
			"type":"VEC3"
		},
		{
			"bufferView":1,
			"componentType":5126,
			"count":220141,
			"type":"VEC3"
		},
		{
			"bufferView":2,
			"componentType":5126,
			"count":220141,
			"type":"VEC2"
		},
		{
			"bufferView":3,
			"componentType":5125,
			"count":1294632,
			"type":"SCALAR"
		}
	],
	"bufferViews":[
		{
			"buffer":0,
			"byteLength":2641692,
			"byteOffset":0,
			"target":34962
		},
		{
			"buffer":0,
			"byteLength":2641692,
			"byteOffset":2641692,
			"target":34962
		},
		{
			"buffer":0,
			"byteLength":1761128,
			"byteOffset":5283384,
			"target":34962
		},
		{
			"buffer":0,
			"byteLength":5178528,
			"byteOffset":7044512,
			"target":34963
		}
	],
	"buffers":[
		{
			"byteLength":12223040,
			"uri":"pjanic.bin"
		}
	]
}
